<svg xmlns="http://www.w3.org/2000/svg" viewBox="0 0 128 128">
  <rect width="128" height="128" rx="20" fill="#2a1a40"/>
  <!-- Central star (large) -->
  <polygon points="64,18 70,38 90,38 74,50 80,70 64,58 48,70 54,50 38,38 58,38" fill="#ffd700"/>
  <!-- Small stars -->
  <polygon points="24,68 27,77 36,77 29,82 32,91 24,86 16,91 19,82 12,77 21,77" fill="#c8a820" opacity="0.8"/>
  <polygon points="104,68 107,77 116,77 109,82 112,91 104,86 96,91 99,82 92,77 101,77" fill="#c8a820" opacity="0.8"/>
  <!-- Upward arrow / beam of light -->
  <polygon points="64,70 58,100 64,92 70,100" fill="#a040e0" opacity="0.7"/>
  <!-- Sparkle dots -->
  <circle cx="42" cy="46" r="4" fill="#e0a0ff" opacity="0.6"/>
  <circle cx="86" cy="46" r="4" fill="#e0a0ff" opacity="0.6"/>
  <circle cx="36" cy="26" r="3" fill="#ffd700" opacity="0.5"/>
  <circle cx="92" cy="26" r="3" fill="#ffd700" opacity="0.5"/>
</svg>
